<?xml version="1.0" encoding="UTF-8"?>
<svg id="Layer_1" data-name="Layer 1" xmlns="http://www.w3.org/2000/svg" viewBox="0 0 1017.53 361.75">
  <defs>
    <style>
      .cls-1 {
        fill: #fff;
      }
    </style>
  </defs>
  <path class="cls-1" d="M885.08,3.62l36.3,99.09c3.98-2.48,4.88-10.14,6.25-14.75,8.06-27.06,18.73-56.19,10.6-84.34h32.9l46.4,157.88h-36.28l-28.68-105.83-30.55,105.93c-4.33-.29-9.83,1.38-12.33-2.76l-38.97-103.15c-.48-.49-2.01.88-2.52,1.67-2.02,3.15-7.82,24.92-8.77,29.9-3.14,16.41-3.33,30.73.71,47,2.44,9.83,7.79,17.83,10.6,27.24h-40.5c-5.35-43.52,17.8-84.75,30.3-125.32.92-9.46-6.66-20.08-9.39-29.07l1.87-3.48h32.06Z"/>
  <path class="cls-1" d="M149.33,200.81v123.45c0,6.62,12.26,14.68,19.19,14.23,7.91-.51,26.36-14.14,26.36-20.94v-116.73h32.9l4.22,157.88h-32.06l-4.22-23.53c-12.36,29.53-61.33,38.16-76.01,6.82-2.13-4.56-5.83-18.3-5.83-22.75v-118.41h35.43Z"/>
  <path class="cls-1" d="M285.15,200.81l78.44,115.89c.77-29.11-.96-59.07-14.86-85.13l-20.56-30.76h43.03c4.27,8.54,5.42,22.62,5.98,32.68,2.25,40.98-1.82,84.01-.07,125.19h-26.15l-76.76-112.53c-3.07,42.69,7.89,79.97,35.42,112.53h-43.03c-4.15-8.16-5.43-21.54-5.98-31-1.95-33.47,1.66-68.77,0-102.44l-13.42-24.43h37.96Z"/>
  <path class="cls-1" d="M407.48,358.68v-157.88h48.09c5.77,0,28.35,6.67,34.56,9.27,57.23,23.97,52.16,109.86-.53,137.13-5.69,2.95-28.63,11.48-34.03,11.48h-48.09ZM442.92,345.25c31.37.45,50.27-21.14,52.38-51.15,2.76-39.11-9.98-74.3-52.38-81.53v132.68Z"/>
  <path class="cls-1" d="M156.62.74c97.19-9.33,100.75,174.24-2.13,164.11C77.2,157.23,74.34,8.64,156.62.74ZM153.25,14c-24.87,2.65-24.6,42.99-23.02,60.79,1.72,19.35,15.48,72.55,38.17,76.27,31.11,5.11,29.94-46.7,27.22-65.78-2.6-18.24-17.92-73.88-42.37-71.28Z"/>
  <path class="cls-1" d="M818.43,42.24l-32.98,8.03c-1.56-.28-6.91-15.68-8.92-19.21-22.26-39.13-71.73-4.15-28.16,26.36,16.28,11.4,39.14,16.22,53.18,31.04,22.32,23.57,13.48,59.1-15.97,71.41-34.25,14.32-72.17-.21-88.6-32.8l32.82-14.32c4.25,10.6,8.9,26.67,18.89,33.37,18.85,12.64,41.8-.84,33.49-23.26-7.56-20.4-43.85-27.76-60.47-40.58-36.72-28.34-19.42-76.92,25.2-81.83,31.11-3.42,59.51,13.33,71.53,41.8Z"/>
  <path class="cls-1" d="M381.42,161.5c-1.26-14.24,1.06-26.33,4.62-39.91,10.23-39.07,31.71-78.31,44.12-116.98l26.41-1.11,55.79,154.51-1.87,3.48h-35.43l-15.19-43.67h-48.09c-1.83,15.37,4.67,29.25,8.44,43.67h-38.81ZM411.79,104.4h43.87l-21.11-67.19c-3.43-.71-2.38,1.33-3.29,3.36-3.07,6.85-22.01,61.65-19.47,63.83Z"/>
  <path class="cls-1" d="M371.3,59.04l-34.65,6.48c-3.54-8.04-4.8-17.85-8.41-26.59-14.09-34.07-42.61-32.29-47.62,4.6-3.57,26.24,1.2,63.58,18.95,84.4,16.24,19.05,43.08,19.96,51.01-6.36,1.46-4.85,2.02-22.02,4.68-22.16l15.64,7.44c-8.12,38.01-36.79,68.57-78.53,55.13-39.04-12.57-49.91-64.46-43.82-99.98,13.98-81.5,106.46-81.31,122.75-2.95Z"/>
  <path class="cls-1" d="M91.11,200.81l5.9,18.47-64.11-3.35v68.86c13.19-.41,26.53.53,39.72.07,3.81-.13,12.89-4.38,12.61.76-.13,2.39-3.29,15.77-4.41,16.08l-47.92-1.8c-2.46,2.45,2.72,45.09,1.78,53-.29,2.44-.2,4.32-2.61,5.79H0v-157.88h91.11Z"/>
  <path class="cls-1" d="M563.65,148.06l62.44-3.37c1.65,3.68-2.27,16.8-5.91,16.8h-91.96V3.62h32.9l2.53,2.52v141.92Z"/>
  <path class="cls-1" d="M34.68,3.62l.84,144.45,64.13-3.37c1.7,3.23-3.61,16.79-5.91,16.79H2.62c-.84,0-2.78-2.77-2.59-4.18L0,7.87c-.08-1.4,1.7-4.24,2.62-4.24h32.06Z"/>
  <path class="cls-1" d="M645.48,3.62h32.06v157.88h-32.06c-.84,0-2.78-2.77-2.59-4.18l-.03-149.45,2.62-4.24Z"/>
</svg>