<?xml version="1.0" encoding="UTF-8"?>
<svg id="Layer_1" data-name="Layer 1" xmlns="http://www.w3.org/2000/svg" viewBox="0 0 363.16 359.73">
  <defs>
    <style>
      .cls-1 {
        fill: #fff;
      }
    </style>
  </defs>
  <path class="cls-1" d="M210.87,193.01c-4.37-17.67-20.99-27.22-33.88-38.21-10.54-8.46-24.3-18.64-38.42-18.57-9.11.08-16.56,6.52-19.74,14.76-1.35,3.68-1.53,7.73-1.43,11.45.2,5.95,1.24,11.74,3.09,17.4,1.76,5.85,5.7,10.69,9.94,14.86,6.08,6.11,12.93,11.39,19.98,16.28,4.67,3.29,9.54,6.27,14.49,9.1,5.07,2.73,10.13,5.57,15.94,6.53,8.8.93,18-1.93,24.62-7.9,3.07-2.84,5.47-6.93,5.97-11.22.66-4.8.65-9.76-.57-14.48ZM185.41,220.19c-8.02.13-15.37-4.38-21.99-8.57-8.3-5.58-15.64-12.52-22.54-19.6-3.37-3.48-6.63-6.97-8.92-11.24-4.11-8.05-8.4-18.69-5.37-27.73,2.07-4.18,6.13-8.28,10.65-9.65,4.94-.85,9.93.75,14.41,2.76,9.19,3.97,16.77,10.51,24.16,17.12,7.31,6.53,14.65,13.42,20.73,21.04,2.98,3.57,4.93,7.86,5.61,12.44,1.92,11.85-4.17,22.45-16.74,23.43Z"/>
  <path class="cls-1" d="M260.63,174.29c-6.43-9.57-14.35-17.61-20.74-27.07-8.21-11.93-14.77-25.42-23.48-37.05-4.86-6.6-10.72-12.68-17.42-17.46-4.07-2.75-8.39-5.27-12.93-7.13-11.98-5.52-25.54-6.02-38.46-4.81-75.72,6.51-94.78,91.73-58.72,148.98,22.6,34.61,63.8,56.47,105.06,56,11.31.06,22.64-2.45,32.88-7.25,2.04,1.46,4.54,2.33,7.24,2.33,6.89,0,12.49-5.6,12.49-12.49,0-.92-.11-1.81-.3-2.67,25.69-22.87,35.2-60.9,14.37-91.37ZM157.87,272.69c-34.73-11.64-64.42-40.18-73.39-76.17-12.89-48.9,7.03-105.65,63.17-110.66,12.18-1.15,25.01-.56,36.02,5.19,11,5.47,20.1,14.01,26.65,24.35,9.6,15.49,17.1,33.48,29.43,47.48,5.84,7.21,11.66,14.06,16.15,22.07,7.48,12.86,9.41,28.54,5.31,42.85-3.35,11.86-10.12,22.57-19.03,31.06-2.18-1.87-5.02-3.01-8.11-3.01-6.89,0-12.49,5.6-12.49,12.49,0,1.41.25,2.77.68,4.04-3.32,1.52-6.75,2.79-10.27,3.76-17.73,4.54-36.81,2.23-54.12-3.44ZM234.06,276.82c-1.04,0-2.03-.2-2.95-.54-.95-.35-1.81-.86-2.56-1.51,0,0,0,0,0,0-.24-.2-.46-.42-.67-.64-.03-.03-.06-.07-.09-.1-.19-.21-.37-.43-.54-.65-.02-.03-.05-.06-.07-.09-.57-.8-1.01-1.7-1.28-2.67-.2-.72-.32-1.48-.32-2.27,0-4.68,3.81-8.49,8.49-8.49,1.94,0,3.73.66,5.16,1.76.22.17.44.35.64.55.02.02.04.04.06.06.45.44.86.92,1.21,1.45,0,.01.02.03.02.04.15.24.3.48.43.73.04.08.07.15.11.23.09.19.18.39.26.59.04.1.07.2.11.3.07.19.13.39.18.58.03.11.06.21.08.32.05.21.08.42.12.64.01.1.03.19.04.29.04.31.06.63.06.95,0,.16-.02.31-.02.47,0,0,0,0,0,0-.25,4.46-3.94,8.02-8.46,8.02Z"/>
  <path class="cls-1" d="M362.62,161.09c-.88-11.81-3.6-23.64-8.33-34.6-9.33-21.26-24.51-40.36-35.89-60.5-10.93-19.21-20.96-32.38-41.77-41.54-14.04-6.29-28.82-11.06-43.68-14.92C210.31,3.91,187.05-.87,163.59.13c-49.66,2.84-90.84,34.19-122.8,70.1-4.86,5.51-9.71,11.26-13.7,17.44l-2.4,3.77s-2.19,3.9-2.19,3.9c-5.74,10.48-9.09,22.2-10.82,33.96-1.82,11.72-2.55,23.42-3.55,35.05-.18,2.2-.36,4.42-.53,6.63-4.46,1.91-7.59,6.34-7.59,11.49,0,4.75,2.67,8.89,6.59,11,0,2.07.02,4.14.08,6.21.47,13.3,2.87,27.1,9.06,39.26,2.05,3.75,4.08,7.98,6.19,11.67,14.77,27.09,32,53.71,56.31,73.26,3.39,2.85,7.14,5.35,10.73,7.95,0,0,7.57,4.68,7.57,4.68,2.22,1.38,5.48,2.98,7.84,4.2,2.31,1.24,5.58,2.78,8.06,3.75,2.35.98,5.83,2.59,8.23,3.33,27.69,9.86,57.77,14.33,87.05,10.69,11.7-1.32,23.21-3.8,34.58-6.61,11.36-2.9,22.8-5.91,33.45-10.97,10.72-4.98,19.96-12.62,28.33-20.83,25.37-24.51,48.29-52.91,54.42-88.63,2.26-11.58,3.32-23.32,3.97-35.03.6-11.69,1.14-23.48.16-35.31ZM4,182.47c0-2.78,1.35-5.24,3.42-6.79.42-.31.87-.59,1.34-.82.1-.05.21-.1.31-.15.12-.05.24-.1.36-.14.12-.05.25-.1.37-.14.11-.04.23-.07.34-.11.14-.04.28-.08.43-.11.11-.03.22-.05.33-.07.16-.03.33-.05.5-.08.09-.01.19-.03.28-.04.26-.02.52-.04.78-.04,0,0,.02,0,.03,0,.31,0,.62.02.92.05.06,0,.11.02.16.03.25.03.5.07.74.13.04,0,.08.02.13.03.26.06.51.13.76.22.03,0,.05.02.08.03.26.09.51.19.75.3,2.91,1.35,4.95,4.29,4.95,7.7,0,3.61-2.27,6.69-5.44,7.91-.21.08-.42.16-.64.22-.03,0-.06.01-.09.02-.22.06-.45.12-.68.17-.07.01-.14.02-.21.03-.19.03-.39.07-.59.09-.23.02-.46.03-.69.04-.05,0-.09,0-.14,0-.06,0-.11,0-.17,0-.23,0-.46-.01-.68-.03-.13-.01-.25-.04-.38-.06-.15-.02-.3-.04-.45-.07-.15-.03-.29-.07-.43-.11-.12-.03-.24-.06-.36-.09-.16-.05-.32-.11-.47-.17-.1-.04-.19-.07-.29-.11-.17-.07-.33-.15-.5-.23-.07-.04-.15-.07-.23-.11-.17-.09-.34-.19-.5-.29-.06-.04-.12-.07-.18-.11-.17-.11-.33-.23-.49-.35-.05-.04-.1-.07-.15-.11-.16-.13-.31-.26-.46-.39-1.69-1.55-2.76-3.77-2.76-6.24ZM349.6,236.19c-1.28,5.49-2.58,11.01-4.51,16.25-5.76,15.85-16.38,29.49-27.16,42.31-7.36,8.55-15.32,16.59-23.85,23.9-8.46,7.13-17.65,13.9-27.95,17.93-62.18,22.97-141.38,22.14-192.2-25.13-12.17-11.98-21.49-26.47-30.55-40.86-6.02-9.63-11.75-19.47-16.92-29.58-3.72-7.56-7.56-15.17-9.16-23.45-1-6.04-1.56-14.01-1.66-23.03,5.36-1.4,9.34-6.27,9.34-12.07s-3.65-10.27-8.67-11.88c1.89-29.6,7.66-62.17,17.57-76.63,2.96-4.49,6.64-9.22,10.13-13.34,16.51-19.18,34.99-36.94,55.59-51.68l3.48-2.31s.87-.58.87-.58c.61-.32,2.04-1.23,2.67-1.56,29.52-16.65,64.82-19.54,97.82-13.7,16.65,2.7,33.2,7.31,49.26,12.56,5.24,1.79,10.74,3.7,15.81,5.95,25.39,10.67,32.12,25.3,45.65,47.46,11.2,19.23,27.06,37.37,34.66,58.47,9.4,27.01,5.62,72.95-.23,100.96Z"/>
  <path class="cls-1" d="M325.57,196.67c-.2-2.52-.23-8.15-.68-10.59-.28-2.11-.47-5.03-1.01-7.09,0,0-.72-3.52-.72-3.52-.39-2.03-1.44-4.91-1.99-6.92-.88-1.97-1.78-4.77-2.85-6.63-8.24-16.92-24.67-28.18-34.16-44.13-4.74-7.94-8.21-16.46-12-24.91-3.72-8.59-8.63-17.01-15.6-23.4-6.12-5.64-12.93-10.69-20.53-14.1-.31-6.61-5.77-11.9-12.46-11.9-4.01,0-7.57,1.91-9.86,4.85-2.53-.59-5.07-1.15-7.62-1.66-9.13-1.83-18.32-3.3-27.54-4.57-8.03-1.15-16.24-2.34-24.42-2.05-54.68,1.42-103.48,46.18-114.7,98.94-9.89,50.64,1.71,102.24,38.37,139.6,14.93,16.06,27.69,20.64,47.52,28.21,26.18,9.46,53.34,20.16,81.75,17.33,21.22-1.75,42.02-9.02,59.59-21.1,6.59-4.55,13.61-9.71,19.61-14.99,23.62-20.33,37.57-45.83,39.07-77.2.2-2.04.27-5.02.26-7.08-.03-2.1.14-5-.04-7.07ZM231.74,53.66c.09.32.16.66.21.99.01.07.02.13.03.2.05.36.08.73.08,1.1h0c0,.34-.03.68-.07,1.01-.01.1-.03.19-.04.29-.04.24-.08.48-.14.72-.02.09-.05.19-.07.28-.07.26-.16.52-.26.77-.02.05-.04.11-.06.16-.13.31-.27.6-.43.89-1.45,2.61-4.23,4.38-7.42,4.38-4.68,0-8.49-3.81-8.49-8.49,0-.37.03-.74.08-1.1.04-.27.08-.54.14-.8,0,0,0,0,0-.01.06-.26.13-.51.21-.76,0-.02.02-.05.03-.07.08-.23.16-.45.26-.67.03-.06.06-.12.09-.18.08-.18.17-.35.26-.52.06-.12.14-.23.2-.34.07-.11.13-.22.2-.33.13-.18.26-.36.4-.54.02-.03.05-.06.07-.09,1.56-1.88,3.91-3.09,6.54-3.09,3.88,0,7.16,2.63,8.16,6.19ZM315.39,205.99c-.12,1.93-.12,4.71-.38,6.59l-.77,6.55c-.43,3.13-1.23,6.6-1.84,9.71-.66,2.29-1.57,5.64-2.24,7.91-.97,2.54-1.89,5.17-2.89,7.69l-2.81,5.95c-.43,1.01-1,1.95-1.55,2.9-.99,1.65-2.29,4.1-3.33,5.67-1.88,2.57-3.66,5.64-5.77,8.02-.69.81-2.46,3.08-3.12,3.84-3,3.38-7.04,7.66-10.43,10.61-8.17,7.42-17.29,13.97-26.85,19.57-5.51,3.27-11.73,6.79-17.74,8.98-38.46,14.48-80.41,2.09-117-12.38-12.56-4.69-24.54-10.99-34.29-20.28-38.09-36.34-48.03-99.5-33.15-148.63,5.14-17.1,15.1-32.23,27.22-45.19,18-19.7,42.19-35.02,69.2-37.57,8.95-.85,17.94-.26,26.81,1.09,12.36,1.78,24.65,4.07,36.81,6.9-.11.66-.18,1.33-.18,2.03,0,6.89,5.6,12.49,12.49,12.49,4.7,0,8.8-2.61,10.93-6.46,12.76,7.32,23.19,19,29.66,32,3.81,7.97,6.52,16.51,10.52,24.84,7.38,16.68,23.11,27.77,32.61,42.96,5.78,9.23,7.52,20.24,8.08,30.98.05,3.81.3,9.47.01,13.23Z"/>
</svg>