<?xml version="1.0" encoding="UTF-8"?>
<svg id="Layer_1" data-name="Layer 1" xmlns="http://www.w3.org/2000/svg" viewBox="0 0 1463.64 367.27">
  <defs>
    <style>
      .cls-1 {
        fill: #1a2b19;
      }
    </style>
  </defs>
  <path class="cls-1" d="M210.87,200.56c-4.37-17.67-20.99-27.22-33.88-38.21-10.54-8.46-24.3-18.64-38.42-18.57-9.11.08-16.56,6.52-19.74,14.76-1.35,3.68-1.53,7.73-1.43,11.45.2,5.95,1.24,11.74,3.09,17.4,1.76,5.85,5.7,10.69,9.94,14.86,6.08,6.11,12.93,11.39,19.98,16.28,4.67,3.29,9.54,6.27,14.49,9.1,5.07,2.73,10.13,5.57,15.94,6.53,8.8.93,18-1.93,24.62-7.9,3.07-2.84,5.47-6.93,5.97-11.22.66-4.8.65-9.76-.57-14.48ZM185.41,227.73c-8.02.13-15.37-4.38-21.99-8.57-8.3-5.58-15.64-12.52-22.54-19.6-3.37-3.48-6.63-6.97-8.92-11.24-4.11-8.05-8.4-18.69-5.37-27.73,2.07-4.18,6.13-8.28,10.65-9.65,4.94-.85,9.93.75,14.41,2.76,9.19,3.97,16.77,10.51,24.16,17.12,7.31,6.53,14.65,13.42,20.73,21.04,2.98,3.57,4.93,7.86,5.61,12.44,1.92,11.85-4.17,22.45-16.74,23.43Z"/>
  <path class="cls-1" d="M260.63,181.83c-6.43-9.57-14.35-17.61-20.74-27.07-8.21-11.93-14.77-25.42-23.48-37.05-4.86-6.6-10.72-12.68-17.42-17.46-4.07-2.75-8.39-5.27-12.93-7.13-11.98-5.52-25.54-6.02-38.46-4.81-75.72,6.51-94.78,91.73-58.72,148.98,22.6,34.61,63.8,56.47,105.06,56,11.31.06,22.64-2.45,32.88-7.25,2.04,1.46,4.54,2.33,7.24,2.33,6.89,0,12.49-5.6,12.49-12.49,0-.92-.11-1.81-.3-2.67,25.69-22.87,35.2-60.9,14.37-91.37ZM157.87,280.24c-34.73-11.64-64.42-40.18-73.39-76.17-12.89-48.9,7.03-105.65,63.17-110.66,12.18-1.15,25.01-.56,36.02,5.19,11,5.47,20.1,14.01,26.65,24.35,9.6,15.49,17.1,33.48,29.43,47.48,5.84,7.21,11.66,14.06,16.15,22.07,7.48,12.86,9.41,28.54,5.31,42.85-3.35,11.86-10.12,22.57-19.03,31.06-2.18-1.87-5.02-3.01-8.11-3.01-6.89,0-12.49,5.6-12.49,12.49,0,1.41.25,2.77.68,4.04-3.32,1.52-6.75,2.79-10.27,3.76-17.73,4.54-36.81,2.23-54.12-3.44ZM234.06,284.37c-1.04,0-2.03-.2-2.95-.54-.95-.35-1.81-.86-2.56-1.51,0,0,0,0,0,0-.24-.2-.46-.42-.67-.64-.03-.03-.06-.07-.09-.1-.19-.21-.37-.43-.54-.65-.02-.03-.05-.06-.07-.09-.57-.8-1.01-1.7-1.28-2.67-.2-.72-.32-1.48-.32-2.27,0-4.68,3.81-8.49,8.49-8.49,1.94,0,3.73.66,5.16,1.76.22.17.44.35.64.55.02.02.04.04.06.06.45.44.86.92,1.21,1.45,0,.01.02.03.02.04.15.24.3.48.43.73.04.08.07.15.11.23.09.19.18.39.26.59.04.1.07.2.11.3.07.19.13.39.18.58.03.11.06.21.08.32.05.21.08.42.12.64.01.1.03.19.04.29.04.31.06.63.06.95,0,.16-.02.31-.02.47,0,0,0,0,0,0-.25,4.46-3.94,8.02-8.46,8.02Z"/>
  <path class="cls-1" d="M362.62,168.63c-.88-11.81-3.6-23.64-8.33-34.6-9.33-21.26-24.51-40.36-35.89-60.5-10.93-19.21-20.96-32.38-41.77-41.54-14.04-6.29-28.82-11.06-43.68-14.92-22.66-5.62-45.91-10.4-69.37-9.4-49.66,2.84-90.84,34.19-122.8,70.1-4.86,5.51-9.71,11.26-13.7,17.44l-2.4,3.77s-2.19,3.9-2.19,3.9c-5.74,10.48-9.09,22.2-10.82,33.96-1.82,11.72-2.55,23.42-3.55,35.05-.18,2.2-.36,4.42-.53,6.63-4.46,1.91-7.59,6.34-7.59,11.49,0,4.75,2.67,8.89,6.59,11,0,2.07.02,4.14.08,6.21.47,13.3,2.87,27.1,9.06,39.26,2.05,3.75,4.08,7.98,6.19,11.67,14.77,27.09,32,53.71,56.31,73.26,3.39,2.85,7.14,5.35,10.73,7.95,0,0,7.57,4.68,7.57,4.68,2.22,1.38,5.48,2.98,7.84,4.2,2.31,1.24,5.58,2.78,8.06,3.75,2.35.98,5.83,2.59,8.23,3.33,27.69,9.86,57.77,14.33,87.05,10.69,11.7-1.32,23.21-3.8,34.58-6.61,11.36-2.9,22.8-5.91,33.45-10.97,10.72-4.98,19.96-12.62,28.33-20.83,25.37-24.51,48.29-52.91,54.42-88.63,2.26-11.58,3.32-23.32,3.97-35.03.6-11.69,1.14-23.48.16-35.31ZM4,190.01c0-2.78,1.35-5.24,3.42-6.79.42-.31.87-.59,1.34-.82.1-.05.21-.1.31-.15.12-.05.24-.1.36-.14.12-.05.25-.1.37-.14.11-.04.23-.07.34-.11.14-.04.28-.08.43-.11.11-.03.22-.05.33-.07.16-.03.33-.05.5-.08.09-.01.19-.03.28-.04.26-.02.52-.04.78-.04,0,0,.02,0,.03,0,.31,0,.62.02.92.05.06,0,.11.02.16.03.25.03.5.07.74.13.04,0,.08.02.13.03.26.06.51.13.76.22.03,0,.05.02.08.03.26.09.51.19.75.3,2.91,1.35,4.95,4.29,4.95,7.7,0,3.61-2.27,6.69-5.44,7.91-.21.08-.42.16-.64.22-.03,0-.06.01-.09.02-.22.06-.45.12-.68.17-.07.01-.14.02-.21.03-.19.03-.39.07-.59.09-.23.02-.46.03-.69.04-.05,0-.09,0-.14,0-.06,0-.11,0-.17,0-.23,0-.46-.01-.68-.03-.13-.01-.25-.04-.38-.06-.15-.02-.3-.04-.45-.07-.15-.03-.29-.07-.43-.11-.12-.03-.24-.06-.36-.09-.16-.05-.32-.11-.47-.17-.1-.04-.19-.07-.29-.11-.17-.07-.33-.15-.5-.23-.07-.04-.15-.07-.23-.11-.17-.09-.34-.19-.5-.29-.06-.04-.12-.07-.18-.11-.17-.11-.33-.23-.49-.35-.05-.04-.1-.07-.15-.11-.16-.13-.31-.26-.46-.39-1.69-1.55-2.76-3.77-2.76-6.24ZM349.6,243.73c-1.28,5.49-2.58,11.01-4.51,16.25-5.76,15.85-16.38,29.49-27.16,42.31-7.36,8.55-15.32,16.59-23.85,23.9-8.46,7.13-17.65,13.9-27.95,17.93-62.18,22.97-141.38,22.14-192.2-25.13-12.17-11.98-21.49-26.47-30.55-40.86-6.02-9.63-11.75-19.47-16.92-29.58-3.72-7.56-7.56-15.17-9.16-23.45-1-6.04-1.56-14.01-1.66-23.03,5.36-1.4,9.34-6.27,9.34-12.07s-3.65-10.27-8.67-11.88c1.89-29.6,7.66-62.17,17.57-76.63,2.96-4.49,6.64-9.22,10.13-13.34,16.51-19.18,34.99-36.94,55.59-51.68l3.48-2.31s.87-.58.87-.58c.61-.32,2.04-1.23,2.67-1.56,29.52-16.65,64.82-19.54,97.82-13.7,16.65,2.7,33.2,7.31,49.26,12.56,5.24,1.79,10.74,3.7,15.81,5.95,25.39,10.67,32.12,25.3,45.65,47.46,11.2,19.23,27.06,37.37,34.66,58.47,9.4,27.01,5.62,72.95-.23,100.96Z"/>
  <path class="cls-1" d="M325.57,204.21c-.2-2.52-.23-8.15-.68-10.59-.28-2.11-.47-5.03-1.01-7.09,0,0-.72-3.52-.72-3.52-.39-2.03-1.44-4.91-1.99-6.92-.88-1.97-1.78-4.77-2.85-6.63-8.24-16.92-24.67-28.18-34.16-44.13-4.74-7.94-8.21-16.46-12-24.91-3.72-8.59-8.63-17.01-15.6-23.4-6.12-5.64-12.93-10.69-20.53-14.1-.31-6.61-5.77-11.9-12.46-11.9-4.01,0-7.57,1.91-9.86,4.85-2.53-.59-5.07-1.15-7.62-1.66-9.13-1.83-18.32-3.3-27.54-4.57-8.03-1.15-16.24-2.34-24.42-2.05-54.68,1.42-103.48,46.18-114.7,98.94-9.89,50.64,1.71,102.24,38.37,139.6,14.93,16.06,27.69,20.64,47.52,28.21,26.18,9.46,53.34,20.16,81.75,17.33,21.22-1.75,42.02-9.02,59.59-21.1,6.59-4.55,13.61-9.71,19.61-14.99,23.62-20.33,37.57-45.83,39.07-77.2.2-2.04.27-5.02.26-7.08-.03-2.1.14-5-.04-7.07ZM231.74,61.2c.09.32.16.66.21.99.01.07.02.13.03.2.05.36.08.73.08,1.1h0c0,.34-.03.68-.07,1.01-.01.1-.03.19-.04.29-.04.24-.08.48-.14.72-.02.09-.05.19-.07.28-.07.26-.16.52-.26.77-.02.05-.04.11-.06.16-.13.31-.27.6-.43.89-1.45,2.61-4.23,4.38-7.42,4.38-4.68,0-8.49-3.81-8.49-8.49,0-.37.03-.74.08-1.1.04-.27.08-.54.14-.8,0,0,0,0,0-.01.06-.26.13-.51.21-.76,0-.02.02-.05.03-.07.08-.23.16-.45.26-.67.03-.06.06-.12.09-.18.08-.18.17-.35.26-.52.06-.12.14-.23.2-.34.07-.11.13-.22.2-.33.13-.18.26-.36.4-.54.02-.03.05-.06.07-.09,1.56-1.88,3.91-3.09,6.54-3.09,3.88,0,7.16,2.63,8.16,6.19ZM315.39,213.54c-.12,1.93-.12,4.71-.38,6.59l-.77,6.55c-.43,3.13-1.23,6.6-1.84,9.71-.66,2.29-1.57,5.64-2.24,7.91-.97,2.54-1.89,5.17-2.89,7.69l-2.81,5.95c-.43,1.01-1,1.95-1.55,2.9-.99,1.65-2.29,4.1-3.33,5.67-1.88,2.57-3.66,5.64-5.77,8.02-.69.81-2.46,3.08-3.12,3.84-3,3.38-7.04,7.66-10.43,10.61-8.17,7.42-17.29,13.97-26.85,19.57-5.51,3.27-11.73,6.79-17.74,8.98-38.46,14.48-80.41,2.09-117-12.38-12.56-4.69-24.54-10.99-34.29-20.28-38.09-36.34-48.03-99.5-33.15-148.63,5.14-17.1,15.1-32.23,27.22-45.19,18-19.7,42.19-35.02,69.2-37.57,8.95-.85,17.94-.26,26.81,1.09,12.36,1.78,24.65,4.07,36.81,6.9-.11.66-.18,1.33-.18,2.03,0,6.89,5.6,12.49,12.49,12.49,4.7,0,8.8-2.61,10.93-6.46,12.76,7.32,23.19,19,29.66,32,3.81,7.97,6.52,16.51,10.52,24.84,7.38,16.68,23.11,27.77,32.61,42.96,5.78,9.23,7.52,20.24,8.08,30.98.05,3.81.3,9.47.01,13.23Z"/>
  <g>
    <path class="cls-1" d="M1331.19,3.62l36.3,99.09c3.98-2.48,4.88-10.14,6.25-14.75,8.06-27.06,18.73-56.19,10.6-84.34h32.9l46.4,157.88h-36.28l-28.68-105.83-30.55,105.93c-4.33-.29-9.83,1.38-12.33-2.76l-38.97-103.15c-.48-.49-2.01.88-2.52,1.67-2.02,3.15-7.82,24.92-8.77,29.9-3.14,16.41-3.33,30.73.71,47,2.44,9.83,7.79,17.83,10.6,27.24h-40.5c-5.35-43.52,17.8-84.75,30.3-125.32.92-9.46-6.66-20.08-9.39-29.07l1.87-3.48h32.06Z"/>
    <path class="cls-1" d="M595.44,200.81v123.45c0,6.62,12.26,14.68,19.19,14.23,7.91-.51,26.36-14.14,26.36-20.94v-116.73h32.9l4.22,157.88h-32.06l-4.22-23.53c-12.36,29.53-61.33,38.16-76.01,6.82-2.13-4.56-5.83-18.3-5.83-22.75v-118.41h35.43Z"/>
    <path class="cls-1" d="M731.26,200.81l78.44,115.89c.77-29.11-.96-59.07-14.86-85.13l-20.56-30.76h43.03c4.27,8.54,5.42,22.62,5.98,32.68,2.25,40.98-1.82,84.01-.07,125.19h-26.15l-76.76-112.53c-3.07,42.69,7.89,79.97,35.42,112.53h-43.03c-4.15-8.16-5.43-21.54-5.98-31-1.95-33.47,1.66-68.77,0-102.44l-13.42-24.43h37.96Z"/>
    <path class="cls-1" d="M853.59,358.68v-157.88h48.09c5.77,0,28.35,6.67,34.56,9.27,57.23,23.97,52.16,109.86-.53,137.13-5.69,2.95-28.63,11.48-34.03,11.48h-48.09ZM889.03,345.25c31.37.45,50.27-21.14,52.38-51.15,2.76-39.11-9.98-74.3-52.38-81.53v132.68Z"/>
    <path class="cls-1" d="M602.73.74c97.19-9.33,100.75,174.24-2.13,164.11-77.29-7.61-80.15-156.21,2.13-164.11ZM599.36,14c-24.87,2.65-24.6,42.99-23.02,60.79,1.72,19.35,15.48,72.55,38.17,76.27,31.11,5.11,29.94-46.7,27.22-65.78-2.6-18.24-17.92-73.88-42.37-71.28Z"/>
    <path class="cls-1" d="M1264.54,42.24l-32.98,8.03c-1.56-.28-6.91-15.68-8.92-19.21-22.26-39.13-71.73-4.15-28.16,26.36,16.28,11.4,39.14,16.22,53.18,31.04,22.32,23.57,13.48,59.1-15.97,71.41-34.25,14.32-72.17-.21-88.6-32.8l32.82-14.32c4.25,10.6,8.9,26.67,18.89,33.37,18.85,12.64,41.8-.84,33.49-23.26-7.56-20.4-43.85-27.76-60.47-40.58-36.72-28.34-19.42-76.92,25.2-81.83,31.11-3.42,59.51,13.33,71.53,41.8Z"/>
    <path class="cls-1" d="M827.53,161.5c-1.26-14.24,1.06-26.33,4.62-39.91,10.23-39.07,31.71-78.31,44.12-116.98l26.41-1.11,55.79,154.51-1.87,3.48h-35.43l-15.19-43.67h-48.09c-1.83,15.37,4.67,29.25,8.44,43.67h-38.81ZM857.9,104.4h43.87l-21.11-67.19c-3.43-.71-2.38,1.33-3.29,3.36-3.07,6.85-22.01,61.65-19.47,63.83Z"/>
    <path class="cls-1" d="M817.41,59.04l-34.65,6.48c-3.54-8.04-4.8-17.85-8.41-26.59-14.09-34.07-42.61-32.29-47.62,4.6-3.57,26.24,1.2,63.58,18.95,84.4,16.24,19.05,43.08,19.96,51.01-6.36,1.46-4.85,2.02-22.02,4.68-22.16l15.64,7.44c-8.12,38.01-36.79,68.57-78.53,55.13-39.04-12.57-49.91-64.46-43.82-99.98,13.98-81.5,106.46-81.31,122.75-2.95Z"/>
    <path class="cls-1" d="M537.22,200.81l5.9,18.47-64.11-3.35v68.86c13.19-.41,26.53.53,39.72.07,3.81-.13,12.89-4.38,12.61.76-.13,2.39-3.29,15.77-4.41,16.08l-47.92-1.8c-2.46,2.45,2.72,45.09,1.78,53-.29,2.44-.2,4.32-2.61,5.79h-32.06v-157.88h91.11Z"/>
    <path class="cls-1" d="M1009.76,148.06l62.44-3.37c1.65,3.68-2.27,16.8-5.91,16.8h-91.96V3.62h32.9l2.53,2.52v141.92Z"/>
    <path class="cls-1" d="M480.79,3.62l.84,144.45,64.13-3.37c1.7,3.23-3.61,16.79-5.91,16.79h-91.11c-.84,0-2.78-2.77-2.59-4.18l-.03-149.45c-.08-1.4,1.7-4.24,2.62-4.24h32.06Z"/>
    <path class="cls-1" d="M1091.59,3.62h32.06v157.88h-32.06c-.84,0-2.78-2.77-2.59-4.18l-.03-149.45,2.62-4.24Z"/>
  </g>
</svg>